Coordinates
version=1
nRows=11
nColumns=40
inDegrees=yes

Units are S.I. units (second, meters, Newtons, ...)
If the header above contains a line with 'inDegrees', this indicates whether rotational values are in degrees (yes) or radians (no).

endheader
time	pelvis_tilt	pelvis_list	pelvis_rotation	pelvis_tx	pelvis_ty	pelvis_tz	hip_flexion_r	hip_adduction_r	hip_rotation_r	knee_angle_r	knee_angle_r_beta	ankle_angle_r	subtalar_angle_r	mtp_angle_r	hip_flexion_l	hip_adduction_l	hip_rotation_l	knee_angle_l	knee_angle_l_beta	ankle_angle_l	subtalar_angle_l	mtp_angle_l	lumbar_extension	lumbar_bending	lumbar_rotation	arm_flex_r	arm_add_r	arm_rot_r	elbow_flex_r	pro_sup_r	wrist_flex_r	wrist_dev_r	arm_flex_l	arm_add_l	arm_rot_l	elbow_flex_l	pro_sup_l	wrist_flex_l	wrist_dev_l
      3.60000000	    -28.98349273	     13.72410006	      5.88375536	      0.14621428	      0.83968018	     -1.15354036	     49.11212300	    -42.56710962	    -21.27352719	     25.91635390	      0.45232571	     -3.80561154	      2.65050318	      0.00000000	     39.13322898	     -9.35985287	    -36.45047880	     14.00948571	      0.24451165	    -13.23871655	     12.54317341	      0.00000000	      0.00000000	      0.00000000	      0.00000000	     42.86362555	    -15.89618696	     42.86362555	     76.44534174	     44.83446800	      0.00000000	      0.00000000	     42.86362555	    -15.89618696	     42.86362555	     76.44534174	     44.83446800	      0.00000000	      0.00000000
      3.60500000	    -29.30348095	     13.85578831	      5.81712461	      0.14506416	      0.83884795	     -1.15331703	     49.95706879	    -42.51223681	    -20.43129920	     26.11737498	      0.45583419	     -3.99362772	      2.12719295	      0.00000000	     39.53866177	     -9.35225215	    -36.52081964	     14.11956352	      0.24643287	    -13.32468177	     12.30915653	      0.00000000	      0.00000000	      0.00000000	      0.00000000	     43.10547662	    -15.74589948	     43.10547662	     76.06999623	     44.89956225	      0.00000000	      0.00000000	     43.10547662	    -15.74589948	     43.10547662	     76.06999623	     44.89956225	      0.00000000	      0.00000000
      3.61000000	    -29.42422550	     13.49913393	      5.94479908	      0.14439176	      0.83865254	     -1.15356542	     49.89555977	    -42.27434359	    -20.59475428	     26.12876089	      0.45603291	     -4.17445345	      1.76229396	      0.00000000	     39.95235888	     -9.67157800	    -36.19741848	     14.41046102	      0.25150999	    -13.27265283	     12.22960877	      0.00000000	      0.00000000	      0.00000000	      0.00000000	     43.30443682	    -15.62989541	     43.30443682	     75.81288475	     44.93523657	      0.00000000	      0.00000000	     43.30443682	    -15.62989541	     43.30443682	     75.81288475	     44.93523657	      0.00000000	      0.00000000
      3.61500000	    -29.69894391	     13.40842240	      5.92035160	      0.14336593	      0.83793861	     -1.15341600	     50.46386917	    -42.11480086	    -20.18766978	     26.31789361	      0.45933390	     -4.25992349	      1.46166527	      0.00000000	     40.42670066	     -9.88672063	    -36.20152156	     14.68021440	      0.25621808	    -13.26167778	     12.12893323	      0.00000000	      0.00000000	      0.00000000	      0.00000000	     43.46196259	    -15.54340797	     43.46196259	     75.64170000	     44.95458027	      0.00000000	      0.00000000	     43.46196259	    -15.54340797	     43.46196259	     75.64170000	     44.95458027	      0.00000000	      0.00000000
      3.62000000	    -30.04047049	     13.32013522	      5.99318724	      0.14222765	      0.83708142	     -1.15349928	     51.10728393	    -42.05549945	    -19.82913020	     26.57954398	      0.46390056	     -4.35391593	      1.15005110	      0.00000000	     40.99750569	    -10.01768571	    -36.07716829	     14.94131463	      0.26077513	    -13.26556438	     11.95361710	      0.00000000	      0.00000000	      0.00000000	      0.00000000	     43.48944911	    -15.52820678	     43.48944911	     75.61034262	     44.95918259	      0.00000000	      0.00000000	     43.48944911	    -15.52820678	     43.48944911	     75.61034262	     44.95918259	      0.00000000	      0.00000000
      3.62500000	    -30.36443671	     13.07939423	      6.05475443	      0.14115968	      0.83627430	     -1.15355510	     51.57359844	    -41.85524601	    -19.64754962	     26.76527229	      0.46714213	     -4.44692387	      0.80899363	      0.00000000	     41.62948177	    -10.33731658	    -35.93400881	     15.32664649	      0.26750044	    -13.19447408	     11.89421065	      0.00000000	      0.00000000	      0.00000000	      0.00000000	     43.52359538	    -15.50960215	     43.52359538	     75.57317050	     44.96419744	      0.00000000	      0.00000000	     43.52359538	    -15.50960215	     43.52359538	     75.57317050	     44.96419744	      0.00000000	      0.00000000
      3.63000000	    -30.74129339	     13.06678699	      6.10464932	      0.13980769	      0.83526576	     -1.15360423	     52.36076936	    -41.81008603	    -19.08359222	     27.02881829	      0.47174187	     -4.60397713	      0.35867870	      0.00000000	     42.22734040	    -10.42078320	    -35.84733838	     15.59523644	      0.27218822	    -13.19712241	     11.66860902	      0.00000000	      0.00000000	      0.00000000	      0.00000000	     43.54421759	    -15.49841594	     43.54421759	     75.55098422	     44.96717268	      0.00000000	      0.00000000	     43.54421759	    -15.49841594	     43.54421759	     75.55098422	     44.96717268	      0.00000000	      0.00000000
      3.63500000	    -31.07298366	     12.50150097	      6.17826807	      0.13861873	      0.83451388	     -1.15376324	     52.55082413	    -41.34767345	    -19.24001657	     27.09606312	      0.47291552	     -4.75742935	     -0.06933490	      0.00000000	     43.05988723	    -11.05725369	    -35.53421829	     16.18795896	      0.28253318	    -13.13848425	     11.49502179	      0.00000000	      0.00000000	      0.00000000	      0.00000000	     43.56067537	    -15.48971008	     43.56067537	     75.53465658	     44.96903325	      0.00000000	      0.00000000	     43.56067537	    -15.48971008	     43.56067537	     75.53465658	     44.96903325	      0.00000000	      0.00000000
      3.64000000	    -31.34486989	     12.13158836	      6.17032771	      0.13748340	      0.83379641	     -1.15370705	     52.87827529	    -40.99293300	    -19.19482018	     27.21841362	      0.47505093	     -4.91696649	     -0.40907765	      0.00000000	     43.69009710	    -11.55481530	    -35.37454077	     16.63252714	      0.29029236	    -13.01077911	     11.61139430	      0.00000000	      0.00000000	      0.00000000	      0.00000000	     43.57472591	    -15.48228602	     43.57472591	     75.52076370	     44.97060586	      0.00000000	      0.00000000	     43.57472591	    -15.48228602	     43.57472591	     75.52076370	     44.97060586	      0.00000000	      0.00000000
      3.64500000	    -31.58341304	     11.93313107	      6.24532429	      0.13636048	      0.83312044	     -1.15385949	     53.25495728	    -40.85835244	    -19.02087310	     27.38939305	      0.47803509	     -5.04964978	     -0.75213362	      0.00000000	     44.20602928	    -11.77878073	    -35.20306226	     16.91912227	      0.29529439	    -12.93881089	     11.65134306	      0.00000000	      0.00000000	      0.00000000	      0.00000000	     43.58788404	    -15.47538184	     43.58788404	     75.50803229	     44.97199270	      0.00000000	      0.00000000	     43.58788404	    -15.47538184	     43.58788404	     75.50803229	     44.97199270	      0.00000000	      0.00000000
      3.65000000	    -32.01763713	     12.04070513	      6.46399459	      0.13487654	      0.83186871	     -1.15429174	     54.17472231	    -41.11531468	    -18.47444519	     27.79107882	      0.48504583	     -5.10178915	     -0.97668055	      0.00000000	     44.84863262	    -11.57416596	    -34.95573137	     17.06747610	      0.29788365	    -13.08468629	     11.17183922	      0.00000000	      0.00000000	      0.00000000	      0.00000000	     43.60310384	    -15.46731620	     43.60310384	     75.49279734	     44.97379374	      0.00000000	      0.00000000	     43.60310384	    -15.46731620	     43.60310384	     75.49279734	     44.97379374	      0.00000000	      0.00000000
